<?xml version="1.0" standalone="no"?>
<!DOCTYPE svg PUBLIC "-//W3C//DTD SVG 20010904//EN"
 "http://www.w3.org/TR/2001/REC-SVG-20010904/DTD/svg10.dtd">
<svg version="1.0" xmlns="http://www.w3.org/2000/svg"
 width="876.000000pt" height="493.000000pt" viewBox="0 0 876.000000 493.000000"
 preserveAspectRatio="xMidYMid meet">
<metadata>
Created by potrace 1.16, written by Peter Selinger 2001-2019
</metadata>
<g transform="translate(0.000000,493.000000) scale(0.100000,-0.100000)"
fill="#1998ff" stroke="none">
<path d="M1037 3879 c-52 -14 -92 -55 -133 -135 -39 -77 -40 -81 -33 -148 6
-54 4 -72 -7 -83 -8 -8 -14 -11 -14 -7 0 5 -5 3 -11 -3 -6 -6 -18 -9 -27 -6
-12 5 -14 1 -9 -16 5 -19 3 -20 -11 -9 -13 11 -15 11 -9 -4 22 -56 22 -54 -3
-33 -14 11 -7 -1 14 -27 l38 -48 -27 -36 c-53 -69 -78 -150 -78 -246 1 -51 -3
-88 -9 -88 -22 0 -154 -95 -206 -148 -91 -95 -126 -206 -88 -281 25 -47 88
-97 119 -92 4 0 7 -4 7 -10 0 -5 4 -8 9 -4 25 15 17 -20 -20 -83 -57 -99 -72
-163 -58 -249 4 -27 -2 -45 -15 -40 -8 3 -17 3 -20 0 -3 -4 -21 -8 -38 -10
-147 -15 -249 -115 -250 -246 0 -88 60 -150 157 -164 25 -3 45 -9 45 -13 0 -4
-24 -32 -54 -64 -59 -61 -103 -86 -181 -101 -87 -16 -125 -28 -125 -40 0 -7
10 -15 23 -18 12 -2 76 -19 142 -36 156 -42 178 -60 183 -160 l4 -69 105 53
106 54 76 110 c42 60 90 129 107 153 17 24 34 53 38 65 6 19 4 21 -19 19 -14
-1 -28 -6 -32 -9 -4 -4 -18 4 -33 18 -24 23 -26 31 -24 96 1 44 8 79 18 94 9
13 16 29 16 35 0 25 33 42 87 45 61 4 76 16 66 55 -4 14 -7 68 -7 120 0 109
12 144 75 209 l39 41 -19 43 c-10 23 -26 60 -36 82 -26 60 -21 148 14 257 16
51 33 107 37 123 6 25 9 15 17 -52 5 -46 13 -83 18 -83 5 0 9 -14 9 -32 0 -17
6 -39 13 -47 8 -9 21 -37 31 -63 10 -27 21 -48 26 -48 4 0 10 -12 13 -27 27
-151 49 -249 65 -298 18 -52 18 -62 6 -109 -16 -58 -19 -133 -8 -191 8 -46 59
-162 80 -186 13 -15 13 -23 1 -70 -8 -30 -15 -65 -15 -79 0 -31 19 -121 29
-135 4 -5 10 -25 14 -43 4 -18 15 -38 26 -45 15 -10 19 -24 19 -75 l0 -63 43
25 c54 32 146 56 217 56 105 0 126 8 146 52 18 39 81 111 154 174 19 16 64 63
99 103 l65 73 -24 18 c-14 10 -27 17 -29 14 -3 -2 -17 8 -32 22 -22 21 -26 31
-18 45 5 10 8 22 7 26 -7 30 69 197 126 277 26 36 76 87 76 78 0 -4 4 -2 8 5
9 14 118 64 125 57 2 -2 7 17 11 43 11 87 58 214 89 245 9 10 17 23 17 30 0 6
3 8 6 5 13 -13 49 40 45 65 0 4 13 35 29 70 17 35 28 55 26 46 -17 -58 -17
-122 -1 -201 l17 -85 -24 -32 c-19 -27 -23 -44 -23 -107 0 -66 3 -77 23 -94
33 -26 24 -45 -60 -131 -145 -149 -141 -234 18 -395 65 -67 73 -78 61 -92 -23
-27 -42 -74 -45 -111 -4 -42 35 -104 122 -198 65 -69 101 -89 216 -122 41 -12
89 -28 107 -36 17 -8 55 -14 85 -14 57 0 66 4 166 87 31 24 77 49 114 61 61
20 145 38 161 34 19 -5 3 22 -43 72 -27 31 -56 69 -65 85 -8 17 -25 35 -36 42
-33 17 -58 84 -48 127 4 20 11 53 14 72 3 19 8 43 11 53 3 10 1 24 -5 31 -6 7
-15 80 -20 162 -11 163 -19 198 -79 324 -22 47 -45 111 -52 142 -10 50 -9 61
6 87 10 16 39 42 66 56 26 14 48 28 48 29 0 2 -16 33 -35 70 -28 54 -35 78
-35 124 0 49 22 132 54 205 6 13 4 17 -10 17 -66 0 -126 38 -138 87 -8 30 30
118 97 226 26 44 47 80 45 81 -2 1 -27 13 -56 26 -69 31 -125 93 -169 186 -43
91 -41 133 8 177 17 16 29 30 27 31 -1 2 -32 13 -68 24 -155 50 -207 27 -250
-111 -12 -39 -24 -73 -25 -75 -2 -2 -41 15 -87 37 -47 23 -90 41 -96 41 -7 0
-47 33 -90 74 -117 112 -140 119 -173 54 -23 -45 -34 -134 -18 -143 5 -4 7
-10 5 -14 -3 -4 11 -23 31 -42 20 -19 32 -27 28 -19 -6 11 -2 10 12 -3 18 -16
32 -21 80 -31 18 -3 69 -54 71 -69 1 -6 4 -23 7 -37 4 -21 -2 -30 -44 -60 -33
-23 -57 -50 -71 -80 -27 -57 -68 -101 -197 -212 -121 -105 -147 -142 -146
-212 1 -62 3 -70 42 -169 17 -43 31 -79 31 -81 0 -2 -26 -6 -57 -8 -75 -5 -82
-7 -121 -44 -30 -27 -34 -36 -34 -85 0 -30 9 -90 20 -134 12 -43 20 -80 19
-82 -2 -1 -16 4 -31 12 -16 8 -37 15 -47 15 -10 0 -21 5 -24 10 -3 6 5 10 19
10 39 0 40 17 8 83 -81 165 -110 304 -71 346 10 10 15 21 12 25 -3 3 2 8 11
12 25 10 24 16 -39 159 -40 93 -49 149 -50 325 -1 126 -5 185 -16 211 -21 53
-132 259 -139 259 -4 0 -15 -34 -25 -76 -15 -58 -23 -74 -35 -70 -8 2 -50 19
-92 36 -77 32 -102 53 -209 173 -38 42 -80 58 -122 46z"/>
<path d="M4475 3851 c-56 -26 -80 -55 -123 -153 -33 -73 -41 -85 -55 -76 -32
17 -142 30 -213 23 l-71 -6 -22 -57 c-13 -31 -31 -74 -42 -95 -10 -22 -19 -48
-19 -59 0 -12 -4 -17 -12 -12 -8 5 -9 -2 -5 -25 4 -20 3 -30 -3 -26 -12 8 -2
-19 23 -62 10 -18 15 -33 10 -33 -4 0 -9 -21 -10 -47 -1 -25 -6 -49 -11 -52
-13 -9 -31 -120 -27 -171 3 -55 0 -62 -134 -272 -139 -220 -157 -253 -171
-317 -11 -51 -11 -55 12 -78 28 -28 105 -41 138 -23 12 6 24 10 26 7 3 -2 -9
-31 -26 -65 -37 -71 -51 -156 -39 -232 7 -44 6 -56 -6 -63 -9 -4 -21 -15 -28
-23 -6 -8 -19 -22 -27 -31 -17 -18 -21 -173 -8 -249 8 -45 10 -44 -64 -45 -10
0 -20 -4 -23 -10 -4 -5 -13 -9 -22 -9 -24 0 -83 -49 -94 -78 -14 -37 7 -91 75
-190 64 -94 68 -112 29 -112 -23 0 -19 -4 27 -26 30 -14 56 -22 57 -17 2 4 12
23 23 40 35 58 87 55 247 -14 l82 -35 41 41 c72 73 151 76 266 10 59 -34 64
-35 64 -13 0 8 5 12 11 9 12 -8 4 114 -11 166 -5 17 -8 66 -7 108 2 69 6 81
35 122 19 26 44 52 58 59 13 8 24 16 24 20 0 3 -27 32 -61 65 -33 33 -67 72
-75 87 -26 50 -14 124 44 270 17 42 36 107 43 145 6 37 15 75 20 84 24 47 225
74 334 45 79 -22 97 -41 103 -111 2 -30 6 -55 9 -55 2 0 20 7 41 16 20 9 55
22 77 30 l39 15 -26 -28 c-63 -67 -92 -163 -76 -255 8 -52 21 -88 60 -180 19
-43 19 -48 5 -63 -28 -28 -34 -100 -12 -156 4 -12 -4 -21 -32 -34 -85 -39
-128 -119 -84 -159 18 -16 152 -77 219 -99 17 -6 32 -13 32 -17 0 -4 44 -22
98 -40 139 -47 156 -40 329 128 41 39 53 57 48 70 -19 44 15 256 48 297 22 28
94 79 112 80 6 0 21 8 34 17 l24 17 -23 63 c-13 35 -49 99 -81 143 -32 44 -63
93 -69 110 -16 43 -15 100 3 138 18 38 80 107 96 107 6 0 11 3 11 8 0 4 15 13
33 21 17 8 34 17 37 20 10 13 90 61 100 61 5 0 10 17 10 38 0 52 21 152 31
152 16 0 9 23 -13 47 -39 42 -27 141 25 198 65 70 100 274 66 380 -22 72 14
187 77 244 l34 32 -25 25 c-25 25 -27 25 -51 9 -41 -27 -132 -21 -290 19 -163
41 -226 44 -334 16 -41 -11 -85 -20 -97 -20 -22 0 -74 -47 -151 -135 -57 -67
-55 -65 -78 -105 -10 -19 -22 -37 -25 -40 -3 -3 -10 -18 -14 -35 -33 -121 19
-174 150 -151 49 9 42 -5 -84 -169 -107 -139 -148 -205 -168 -275 -13 -49 -21
-60 -67 -91 -73 -51 -236 -110 -301 -109 -18 1 -19 1 -2 11 25 15 22 21 -27
52 -54 34 -110 115 -127 183 -13 56 -1 152 27 205 17 33 95 114 153 159 25 19
65 54 90 77 l46 41 -20 22 c-55 61 -162 257 -191 350 -19 61 -18 145 2 175 30
46 -10 59 -81 26z"/>
<path d="M7380 3842 c-36 -16 -64 -52 -102 -128 l-40 -82 -61 -22 c-34 -12
-102 -28 -152 -36 -237 -39 -303 -76 -397 -225 -46 -75 -55 -95 -76 -171 l-18
-67 -28 14 c-15 8 -32 13 -36 10 -4 -3 -13 2 -20 10 -7 8 -16 13 -20 10 -4 -3
-13 2 -20 10 -15 18 -34 20 -24 3 5 -10 4 -10 -6 -1 -9 9 -19 5 -41 -18 -16
-17 -27 -34 -24 -39 3 -5 1 -18 -4 -28 -40 -75 -27 -268 24 -346 14 -21 14
-25 -1 -37 -10 -8 -20 -13 -23 -12 -12 3 -71 -29 -93 -52 -37 -37 -45 -49 -56
-86 -9 -28 -24 -320 -22 -424 0 -36 32 -128 50 -145 3 -3 33 -46 66 -96 95
-141 103 -151 204 -238 l96 -83 89 -7 c48 -3 93 -10 99 -14 6 -5 41 -21 78
-36 54 -22 70 -25 87 -16 12 6 21 15 21 20 0 6 7 10 15 10 8 0 15 4 15 9 0 5
11 12 25 15 14 4 23 10 20 15 -2 5 3 12 13 16 27 11 82 14 88 4 21 -35 54 29
56 111 2 48 -11 172 -18 179 -2 2 -10 -1 -18 -8 -8 -6 -20 -10 -27 -9 -25 5
-98 90 -115 133 -18 48 -14 61 38 127 33 42 35 35 -40 133 -76 99 -87 122 -98
210 -5 34 -1 45 26 78 17 20 53 51 78 69 63 42 111 85 144 126 30 37 29 52 -4
52 -24 0 -91 67 -85 84 2 6 1 20 -3 31 -7 21 16 110 43 161 9 17 37 62 62 100
26 38 67 108 91 156 61 117 109 153 201 149 36 -1 123 -24 175 -46 13 -5 16
-1 14 19 -4 34 9 29 54 -19 68 -74 108 -134 103 -154 -11 -42 -62 -73 -134
-82 -81 -10 -100 -18 -119 -53 -29 -54 40 -166 137 -223 39 -23 51 -25 104
-20 32 4 59 5 59 3 0 -12 -120 -285 -133 -301 -4 -5 -15 -20 -25 -32 -9 -11
-24 -31 -32 -43 -8 -12 -25 -34 -37 -48 -13 -15 -23 -37 -23 -50 0 -13 -4 -21
-9 -18 -12 8 -2 -35 13 -53 9 -12 8 -13 -2 -7 -27 16 7 -32 42 -60 23 -19 47
-28 75 -29 62 -3 65 -13 29 -85 -49 -96 -109 -150 -210 -189 -46 -18 -101 -42
-124 -53 -59 -30 -100 -96 -118 -190 -8 -42 -24 -107 -36 -145 -12 -37 -20
-90 -20 -118 3 -84 2 -87 -17 -76 -10 5 -39 16 -64 24 -65 22 -111 7 -216 -69
-21 -15 -24 -15 -61 14 -21 17 -50 36 -65 43 -15 7 -27 15 -27 19 0 14 -179
53 -193 42 -23 -19 -98 -179 -103 -218 -5 -39 -4 -39 108 -136 199 -170 244
-197 401 -239 45 -12 101 -31 124 -41 56 -25 132 -86 168 -137 l30 -42 65 5
c36 3 76 8 90 11 14 2 34 7 45 9 47 9 142 40 170 54 32 16 44 19 140 30 73 9
127 -3 212 -48 56 -29 163 -126 163 -147 0 -4 16 -19 36 -33 36 -24 37 -24 53
-5 41 50 144 127 225 169 49 25 94 46 99 46 5 0 36 12 67 26 l58 26 0 66 c0
37 5 80 11 96 13 33 21 21 -89 151 -66 77 -96 131 -106 189 -3 17 -12 41 -20
54 -14 21 -20 23 -57 16 -50 -9 -81 -9 -169 1 -61 7 -71 5 -111 -18 -24 -14
-62 -47 -86 -74 -53 -60 -56 -64 -74 -99 -18 -35 -87 -103 -87 -86 0 7 -12 4
-32 -8 -47 -29 -70 -25 -177 26 -53 26 -107 51 -121 56 -27 10 -107 12 -155 3
l-29 -6 27 25 c16 14 32 26 37 26 4 0 10 6 12 13 5 14 133 16 183 3 64 -17 82
-17 125 3 29 13 68 45 110 93 118 133 178 186 248 219 36 18 83 33 104 33 31
1 37 4 32 18 -24 77 -21 156 7 206 22 38 101 99 178 137 l33 17 -37 30 c-65
54 -71 82 -70 343 0 215 2 235 24 301 35 104 84 171 154 210 l59 32 -94 70
c-123 91 -143 128 -131 241 13 125 9 212 -12 246 -25 39 -146 157 -213 207
-92 68 -143 79 -200 42 -22 -15 -26 -13 -75 24 -79 60 -145 89 -243 106 -49 9
-120 23 -159 31 -75 16 -121 18 -145 7z"/>
</g>
</svg>
